<?xml version="1.0" encoding="UTF-8" standalone="no"?>
<?xml-stylesheet href="/var/folders/77/28_x7bwj3zdg_bmxwh_y5bcw0000gn/T/graphviz-styles.css" type="text/css"?>
<!DOCTYPE svg PUBLIC "-//W3C//DTD SVG 1.1//EN"
 "http://www.w3.org/Graphics/SVG/1.1/DTD/svg11.dtd">
<!-- Generated by graphviz version 11.0.0 (20240428.1522)
 -->
<!-- Pages: 1 -->
<svg width="1188pt" height="783pt"
 viewBox="0.00 0.00 1188.00 783.00" xmlns="http://www.w3.org/2000/svg" xmlns:xlink="http://www.w3.org/1999/xlink">
<g id="graph0" class="graph" transform="scale(1 1) rotate(0) translate(4 779)">
<polygon fill="white" stroke="none" points="-4,4 -4,-779 1184,-779 1184,4 -4,4"/>
<g id="clust1" class="cluster">
<title>outer_cluster_7</title>
</g>
<g id="clust2" class="cluster">
<title>cluster_7</title>
<path fill="#ffffb3" stroke="black" stroke-dasharray="5,2" d="M23,-90C23,-90 59,-90 59,-90 65,-90 71,-96 71,-102 71,-102 71,-120 71,-120 71,-126 65,-132 59,-132 59,-132 23,-132 23,-132 17,-132 11,-126 11,-120 11,-120 11,-102 11,-102 11,-96 17,-90 23,-90"/>
</g>
<g id="clust4" class="cluster">
<title>outer_cluster_11</title>
</g>
<g id="clust5" class="cluster">
<title>cluster_11</title>
<path fill="#ffffb3" stroke="black" stroke-dasharray="5,2" d="M62,-169C62,-169 98,-169 98,-169 104,-169 110,-175 110,-181 110,-181 110,-199 110,-199 110,-205 104,-211 98,-211 98,-211 62,-211 62,-211 56,-211 50,-205 50,-199 50,-199 50,-181 50,-181 50,-175 56,-169 62,-169"/>
</g>
<g id="clust7" class="cluster">
<title>outer_cluster_15</title>
</g>
<g id="clust8" class="cluster">
<title>cluster_15</title>
<path fill="#ffffb3" stroke="black" stroke-dasharray="5,2" d="M335,-485C335,-485 371,-485 371,-485 377,-485 383,-491 383,-497 383,-497 383,-515 383,-515 383,-521 377,-527 371,-527 371,-527 335,-527 335,-527 329,-527 323,-521 323,-515 323,-515 323,-497 323,-497 323,-491 329,-485 335,-485"/>
</g>
<g id="clust10" class="cluster">
<title>outer_cluster_14</title>
</g>
<g id="clust11" class="cluster">
<title>cluster_14</title>
<path fill="#ffffb3" stroke="black" stroke-dasharray="5,2" d="M48,-406C48,-406 84,-406 84,-406 90,-406 96,-412 96,-418 96,-418 96,-436 96,-436 96,-442 90,-448 84,-448 84,-448 48,-448 48,-448 42,-448 36,-442 36,-436 36,-436 36,-418 36,-418 36,-412 42,-406 48,-406"/>
</g>
<g id="clust13" class="cluster">
<title>outer_cluster_16</title>
</g>
<g id="clust14" class="cluster">
<title>cluster_16</title>
<path fill="#ffffb3" stroke="black" stroke-dasharray="5,2" d="M904,-564C904,-564 940,-564 940,-564 946,-564 952,-570 952,-576 952,-576 952,-594 952,-594 952,-600 946,-606 940,-606 940,-606 904,-606 904,-606 898,-606 892,-600 892,-594 892,-594 892,-576 892,-576 892,-570 898,-564 904,-564"/>
</g>
<g id="clust16" class="cluster">
<title>outer_cluster_8</title>
</g>
<g id="clust17" class="cluster">
<title>cluster_8</title>
<path fill="#ffffb3" stroke="black" stroke-dasharray="5,2" d="M365,-248C365,-248 401,-248 401,-248 407,-248 413,-254 413,-260 413,-260 413,-278 413,-278 413,-284 407,-290 401,-290 401,-290 365,-290 365,-290 359,-290 353,-284 353,-278 353,-278 353,-260 353,-260 353,-254 359,-248 365,-248"/>
</g>
<g id="clust19" class="cluster">
<title>outer_cluster_17</title>
</g>
<g id="clust20" class="cluster">
<title>cluster_17</title>
<path fill="#ffffb3" stroke="black" stroke-dasharray="5,2" d="M923,-643C923,-643 959,-643 959,-643 965,-643 971,-649 971,-655 971,-655 971,-673 971,-673 971,-679 965,-685 959,-685 959,-685 923,-685 923,-685 917,-685 911,-679 911,-673 911,-673 911,-655 911,-655 911,-649 917,-643 923,-643"/>
</g>
<g id="clust22" class="cluster">
<title>outer_cluster_9</title>
</g>
<g id="clust23" class="cluster">
<title>cluster_9</title>
<path fill="#ffffb3" stroke="black" stroke-dasharray="5,2" d="M943,-327C943,-327 979,-327 979,-327 985,-327 991,-333 991,-339 991,-339 991,-357 991,-357 991,-363 985,-369 979,-369 979,-369 943,-369 943,-369 937,-369 931,-363 931,-357 931,-357 931,-339 931,-339 931,-333 937,-327 943,-327"/>
</g>
<g id="clust25" class="cluster">
<title>outer_cluster_12</title>
</g>
<g id="clust26" class="cluster">
<title>cluster_12</title>
<path fill="#ffffb3" stroke="black" stroke-dasharray="5,2" d="M39,-248C39,-248 75,-248 75,-248 81,-248 87,-254 87,-260 87,-260 87,-278 87,-278 87,-284 81,-290 75,-290 75,-290 39,-290 39,-290 33,-290 27,-284 27,-278 27,-278 27,-260 27,-260 27,-254 33,-248 39,-248"/>
</g>
<g id="clust28" class="cluster">
<title>outer_cluster_4</title>
</g>
<g id="clust29" class="cluster">
<title>cluster_4</title>
<path fill="#bebada" stroke="black" stroke-dasharray="5,2" d="M114,-90C114,-90 150,-90 150,-90 156,-90 162,-96 162,-102 162,-102 162,-120 162,-120 162,-126 156,-132 150,-132 150,-132 114,-132 114,-132 108,-132 102,-126 102,-120 102,-120 102,-102 102,-102 102,-96 108,-90 114,-90"/>
</g>
<g id="clust31" class="cluster">
<title>outer_cluster_3</title>
</g>
<g id="clust32" class="cluster">
<title>cluster_3</title>
<path fill="#bebada" stroke="black" stroke-dasharray="5,2" d="M546,-169C546,-169 582,-169 582,-169 588,-169 594,-175 594,-181 594,-181 594,-199 594,-199 594,-205 588,-211 582,-211 582,-211 546,-211 546,-211 540,-211 534,-205 534,-199 534,-199 534,-181 534,-181 534,-175 540,-169 546,-169"/>
</g>
<g id="clust34" class="cluster">
<title>outer_cluster_10</title>
</g>
<g id="clust35" class="cluster">
<title>cluster_10</title>
<path fill="#bebada" stroke="black" stroke-dasharray="5,2" d="M943,-406C943,-406 979,-406 979,-406 985,-406 991,-412 991,-418 991,-418 991,-436 991,-436 991,-442 985,-448 979,-448 979,-448 943,-448 943,-448 937,-448 931,-442 931,-436 931,-436 931,-418 931,-418 931,-412 937,-406 943,-406"/>
</g>
<g id="clust37" class="cluster">
<title>outer_cluster_2</title>
</g>
<g id="clust38" class="cluster">
<title>cluster_2</title>
<path fill="#bebada" stroke="black" stroke-dasharray="5,2" d="M326,-169C326,-169 362,-169 362,-169 368,-169 374,-175 374,-181 374,-181 374,-199 374,-199 374,-205 368,-211 362,-211 362,-211 326,-211 326,-211 320,-211 314,-205 314,-199 314,-199 314,-181 314,-181 314,-175 320,-169 326,-169"/>
</g>
<g id="clust40" class="cluster">
<title>outer_cluster_6</title>
</g>
<g id="clust41" class="cluster">
<title>cluster_6</title>
<path fill="#bebada" stroke="black" stroke-dasharray="5,2" d="M923,-722C923,-722 959,-722 959,-722 965,-722 971,-728 971,-734 971,-734 971,-752 971,-752 971,-758 965,-764 959,-764 959,-764 923,-764 923,-764 917,-764 911,-758 911,-752 911,-752 911,-734 911,-734 911,-728 917,-722 923,-722"/>
</g>
<g id="clust43" class="cluster">
<title>outer_cluster_1</title>
</g>
<g id="clust44" class="cluster">
<title>cluster_1</title>
<path fill="#bebada" stroke="black" stroke-dasharray="5,2" d="M794,-169C794,-169 830,-169 830,-169 836,-169 842,-175 842,-181 842,-181 842,-199 842,-199 842,-205 836,-211 830,-211 830,-211 794,-211 794,-211 788,-211 782,-205 782,-199 782,-199 782,-181 782,-181 782,-175 788,-169 794,-169"/>
</g>
<g id="clust46" class="cluster">
<title>outer_cluster_5</title>
</g>
<g id="clust47" class="cluster">
<title>cluster_5</title>
<path fill="#bebada" stroke="black" stroke-dasharray="5,2" d="M238,-169C238,-169 274,-169 274,-169 280,-169 286,-175 286,-181 286,-181 286,-199 286,-199 286,-205 280,-211 274,-211 274,-211 238,-211 238,-211 232,-211 226,-205 226,-199 226,-199 226,-181 226,-181 226,-175 232,-169 238,-169"/>
</g>
<g id="clust49" class="cluster">
<title>outer_cluster_13</title>
</g>
<g id="clust50" class="cluster">
<title>cluster_13</title>
<path fill="#bebada" stroke="black" stroke-dasharray="5,2" d="M39,-327C39,-327 75,-327 75,-327 81,-327 87,-333 87,-339 87,-339 87,-357 87,-357 87,-363 81,-369 75,-369 75,-369 39,-369 39,-369 33,-369 27,-363 27,-357 27,-357 27,-339 27,-339 27,-333 33,-327 39,-327"/>
</g>
<g id="clust52" class="cluster">
<title>outer_cluster_0</title>
</g>
<g id="clust53" class="cluster">
<title>cluster_0</title>
<path fill="#bebada" stroke="black" stroke-dasharray="5,2" d="M1054,-169C1054,-169 1090,-169 1090,-169 1096,-169 1102,-175 1102,-181 1102,-181 1102,-199 1102,-199 1102,-205 1096,-211 1090,-211 1090,-211 1054,-211 1054,-211 1048,-211 1042,-205 1042,-199 1042,-199 1042,-181 1042,-181 1042,-175 1048,-169 1054,-169"/>
</g>
<g id="clust55" class="cluster">
<title>outer_cluster_edge&#45;9572042964624420268&#45;value</title>
</g>
<g id="clust56" class="cluster">
<title>cluster_edge&#45;9572042964624420268&#45;value</title>
<path fill="#fb8072" stroke="black" stroke-dasharray="5,2" d="M555,-248C555,-248 649,-248 649,-248 655,-248 661,-254 661,-260 661,-260 661,-278 661,-278 661,-284 655,-290 649,-290 649,-290 555,-290 555,-290 549,-290 543,-284 543,-278 543,-278 543,-260 543,-260 543,-254 549,-248 555,-248"/>
</g>
<g id="clust58" class="cluster">
<title>outer_cluster_edge&#45;8740641910606876011&#45;value</title>
</g>
<g id="clust59" class="cluster">
<title>cluster_edge&#45;8740641910606876011&#45;value</title>
<path fill="#fb8072" stroke="black" stroke-dasharray="5,2" d="M679,-248C679,-248 773,-248 773,-248 779,-248 785,-254 785,-260 785,-260 785,-278 785,-278 785,-284 779,-290 773,-290 773,-290 679,-290 679,-290 673,-290 667,-284 667,-278 667,-278 667,-260 667,-260 667,-254 673,-248 679,-248"/>
</g>
<g id="clust61" class="cluster">
<title>outer_cluster_edge&#45;11868447927124751835&#45;value</title>
</g>
<g id="clust62" class="cluster">
<title>cluster_edge&#45;11868447927124751835&#45;value</title>
<path fill="#fb8072" stroke="black" stroke-dasharray="5,2" d="M431,-248C431,-248 525,-248 525,-248 531,-248 537,-254 537,-260 537,-260 537,-278 537,-278 537,-284 531,-290 525,-290 525,-290 431,-290 431,-290 425,-290 419,-284 419,-278 419,-278 419,-260 419,-260 419,-254 425,-248 431,-248"/>
</g>
<g id="clust64" class="cluster">
<title>outer_cluster_edge&#45;15318938057191675792&#45;value</title>
</g>
<g id="clust65" class="cluster">
<title>cluster_edge&#45;15318938057191675792&#45;value</title>
<path fill="#fb8072" stroke="black" stroke-dasharray="5,2" d="M105,-248C105,-248 199,-248 199,-248 205,-248 211,-254 211,-260 211,-260 211,-278 211,-278 211,-284 205,-290 199,-290 199,-290 105,-290 105,-290 99,-290 93,-284 93,-278 93,-278 93,-260 93,-260 93,-254 99,-248 105,-248"/>
</g>
<g id="clust67" class="cluster">
<title>outer_cluster_edge&#45;2743974990046126629&#45;value</title>
</g>
<g id="clust68" class="cluster">
<title>cluster_edge&#45;2743974990046126629&#45;value</title>
<path fill="#fb8072" stroke="black" stroke-dasharray="5,2" d="M229,-248C229,-248 323,-248 323,-248 329,-248 335,-254 335,-260 335,-260 335,-278 335,-278 335,-284 329,-290 323,-290 323,-290 229,-290 229,-290 223,-290 217,-284 217,-278 217,-278 217,-260 217,-260 217,-254 223,-248 229,-248"/>
</g>
<g id="clust70" class="cluster">
<title>outer_cluster_edge&#45;5996666920560749382&#45;value</title>
</g>
<g id="clust71" class="cluster">
<title>cluster_edge&#45;5996666920560749382&#45;value</title>
<path fill="#fb8072" stroke="black" stroke-dasharray="5,2" d="M803,-248C803,-248 897,-248 897,-248 903,-248 909,-254 909,-260 909,-260 909,-278 909,-278 909,-284 903,-290 897,-290 897,-290 803,-290 803,-290 797,-290 791,-284 791,-278 791,-278 791,-260 791,-260 791,-254 797,-248 803,-248"/>
</g>
<g id="clust73" class="cluster">
<title>outer_cluster_edge&#45;5871781006564002453&#45;value</title>
</g>
<g id="clust74" class="cluster">
<title>cluster_edge&#45;5871781006564002453&#45;value</title>
<path fill="#fb8072" stroke="black" stroke-dasharray="5,2" d="M1063,-248C1063,-248 1157,-248 1157,-248 1163,-248 1169,-254 1169,-260 1169,-260 1169,-278 1169,-278 1169,-284 1163,-290 1157,-290 1157,-290 1063,-290 1063,-290 1057,-290 1051,-284 1051,-278 1051,-278 1051,-260 1051,-260 1051,-254 1057,-248 1063,-248"/>
</g>
<g id="clust76" class="cluster">
<title>outer_cluster_edge&#45;11743562013128004906&#45;value</title>
</g>
<g id="clust77" class="cluster">
<title>cluster_edge&#45;11743562013128004906&#45;value</title>
<path fill="#fb8072" stroke="black" stroke-dasharray="5,2" d="M939,-248C939,-248 1033,-248 1033,-248 1039,-248 1045,-254 1045,-260 1045,-260 1045,-278 1045,-278 1045,-284 1039,-290 1033,-290 1033,-290 939,-290 939,-290 933,-290 927,-284 927,-278 927,-278 927,-260 927,-260 927,-254 933,-248 939,-248"/>
</g>
<g id="clust79" class="cluster">
<title>outer_cluster_i64&#45;11743562013128004906</title>
</g>
<g id="clust80" class="cluster">
<title>cluster_i64&#45;11743562013128004906</title>
<path fill="#80b1d3" stroke="black" stroke-dasharray="5,2" d="M546,-90C546,-90 582,-90 582,-90 588,-90 594,-96 594,-102 594,-102 594,-120 594,-120 594,-126 588,-132 582,-132 582,-132 546,-132 546,-132 540,-132 534,-126 534,-120 534,-120 534,-102 534,-102 534,-96 540,-90 546,-90"/>
</g>
<g id="clust82" class="cluster">
<title>outer_cluster_i64&#45;5871781006564002453</title>
</g>
<g id="clust83" class="cluster">
<title>cluster_i64&#45;5871781006564002453</title>
<path fill="#80b1d3" stroke="black" stroke-dasharray="5,2" d="M1054,-90C1054,-90 1090,-90 1090,-90 1096,-90 1102,-96 1102,-102 1102,-102 1102,-120 1102,-120 1102,-126 1096,-132 1090,-132 1090,-132 1054,-132 1054,-132 1048,-132 1042,-126 1042,-120 1042,-120 1042,-102 1042,-102 1042,-96 1048,-90 1054,-90"/>
</g>
<g id="clust85" class="cluster">
<title>outer_cluster_i64&#45;5040379952546458196</title>
</g>
<g id="clust86" class="cluster">
<title>cluster_i64&#45;5040379952546458196</title>
<path fill="#80b1d3" stroke="black" stroke-dasharray="5,2" d="M114,-11C114,-11 150,-11 150,-11 156,-11 162,-17 162,-23 162,-23 162,-41 162,-41 162,-47 156,-53 150,-53 150,-53 114,-53 114,-53 108,-53 102,-47 102,-41 102,-41 102,-23 102,-23 102,-17 108,-11 114,-11"/>
</g>
<g id="clust88" class="cluster">
<title>outer_cluster_i64&#45;17615343019692007359</title>
</g>
<g id="clust89" class="cluster">
<title>cluster_i64&#45;17615343019692007359</title>
<path fill="#80b1d3" stroke="black" stroke-dasharray="5,2" d="M238,-90C238,-90 274,-90 274,-90 280,-90 286,-96 286,-102 286,-102 286,-120 286,-120 286,-126 280,-132 274,-132 274,-132 238,-132 238,-132 232,-132 226,-126 226,-120 226,-120 226,-102 226,-102 226,-96 232,-90 238,-90"/>
</g>
<g id="clust91" class="cluster">
<title>outer_cluster_i64&#45;16783941965674463102</title>
</g>
<g id="clust92" class="cluster">
<title>cluster_i64&#45;16783941965674463102</title>
<path fill="#80b1d3" stroke="black" stroke-dasharray="5,2" d="M326,-90C326,-90 362,-90 362,-90 368,-90 374,-96 374,-102 374,-102 374,-120 374,-120 374,-126 368,-132 362,-132 362,-132 326,-132 326,-132 320,-132 314,-126 314,-120 314,-120 314,-102 314,-102 314,-96 320,-90 326,-90"/>
</g>
<g id="clust94" class="cluster">
<title>outer_cluster_i64&#45;10912160959110460649</title>
</g>
<g id="clust95" class="cluster">
<title>cluster_i64&#45;10912160959110460649</title>
<path fill="#80b1d3" stroke="black" stroke-dasharray="5,2" d="M794,-90C794,-90 830,-90 830,-90 836,-90 842,-96 842,-102 842,-102 842,-120 842,-120 842,-126 836,-132 830,-132 830,-132 794,-132 794,-132 788,-132 782,-126 782,-120 782,-120 782,-102 782,-102 782,-96 788,-90 794,-90"/>
</g>
<!-- cons&#45;4604575297633516347&#45;&gt;nil&#45;0 -->
<g id="edge2" class="edge">
<title>cons&#45;4604575297633516347:s&#45;&gt;nil&#45;0</title>
<path fill="none" stroke="black" d="M89,-174C89,-158.28 79.23,-144.12 68.5,-133.32"/>
<polygon fill="black" stroke="black" points="73.04,-134.74 68.05,-132.95 70.84,-137.46 73.04,-134.74"/>
</g>
<!-- cons&#45;4604575297633516347&#45;&gt;Int&#45;5040379952546458196 -->
<g id="edge1" class="edge">
<title>cons&#45;4604575297633516347:s&#45;&gt;Int&#45;5040379952546458196</title>
<path fill="none" stroke="black" d="M71,-174C71,-155.28 85.31,-140.15 100.07,-129.52"/>
<polygon fill="black" stroke="black" points="97.8,-133.37 100.78,-128.99 95.72,-130.56 97.8,-133.37"/>
</g>
<!-- Int&#45;5040379952546458196&#45;&gt;i64&#45;5040379952546458196 -->
<g id="edge17" class="edge">
<title>Int&#45;5040379952546458196:s&#45;&gt;i64&#45;5040379952546458196</title>
<path fill="none" stroke="black" d="M132,-95C132,-82.22 132,-67.96 132,-56.35"/>
<polygon fill="black" stroke="black" points="133.75,-59.51 132,-54.51 130.25,-59.51 133.75,-59.51"/>
</g>
<!-- cons&#45;249771827993493858&#45;&gt;Int&#45;16783941965674463102 -->
<g id="edge3" class="edge">
<title>cons&#45;249771827993493858:s&#45;&gt;Int&#45;16783941965674463102</title>
<path fill="none" stroke="black" d="M344,-490C344,-387.16 344,-264.43 344,-214.18"/>
<polygon fill="black" stroke="black" points="345.75,-217.51 344,-212.51 342.25,-217.51 345.75,-217.51"/>
</g>
<!-- cons&#45;249771827993493858&#45;&gt;cons&#45;4585305698939538527 -->
<g id="edge4" class="edge">
<title>cons&#45;249771827993493858:s&#45;&gt;cons&#45;4585305698939538527</title>
<path fill="none" stroke="black" d="M362,-490C362,-436.76 176.24,-428.96 99.04,-428.02"/>
<polygon fill="black" stroke="black" points="102.55,-426.35 97.51,-427.99 102.48,-429.85 102.55,-426.35"/>
</g>
<!-- Int&#45;16783941965674463102&#45;&gt;i64&#45;16783941965674463102 -->
<g id="edge20" class="edge">
<title>Int&#45;16783941965674463102:s&#45;&gt;i64&#45;16783941965674463102</title>
<path fill="none" stroke="black" d="M344,-174C344,-161.22 344,-146.96 344,-135.35"/>
<polygon fill="black" stroke="black" points="345.75,-138.51 344,-133.51 342.25,-138.51 345.75,-138.51"/>
</g>
<!-- cons&#45;4585305698939538527&#45;&gt;nil&#45;0 -->
<g id="edge6" class="edge">
<title>cons&#45;4585305698939538527:s&#45;&gt;nil&#45;0</title>
<path fill="none" stroke="black" d="M75,-411C75,-383.17 38.09,-397.07 26,-372 -12.53,-292.1 16.81,-181.96 32.62,-134.86"/>
<polygon fill="black" stroke="black" points="33.08,-138.72 33.14,-133.42 29.79,-137.52 33.08,-138.72"/>
</g>
<!-- cons&#45;4585305698939538527&#45;&gt;Slist&#45;15121139857639374588 -->
<g id="edge5" class="edge">
<title>cons&#45;4585305698939538527:s&#45;&gt;Slist&#45;15121139857639374588</title>
<path fill="none" stroke="black" d="M57,-411C57,-398.22 57,-383.96 57,-372.35"/>
<polygon fill="black" stroke="black" points="58.75,-375.51 57,-370.51 55.25,-375.51 58.75,-375.51"/>
</g>
<!-- Slist&#45;15121139857639374588&#45;&gt;cons&#45;5560862265647807533 -->
<g id="edge24" class="edge">
<title>Slist&#45;15121139857639374588:s&#45;&gt;cons&#45;5560862265647807533</title>
<path fill="none" stroke="black" d="M57,-332C57,-319.22 57,-304.96 57,-293.35"/>
<polygon fill="black" stroke="black" points="58.75,-296.51 57,-291.51 55.25,-296.51 58.75,-296.51"/>
</g>
<!-- cons&#45;8490870082613382153&#45;&gt;cons&#45;249771827993493858 -->
<g id="edge8" class="edge">
<title>cons&#45;8490870082613382153:s&#45;&gt;cons&#45;249771827993493858</title>
<path fill="none" stroke="black" d="M931,-569C931,-513.79 508.64,-507.66 386.01,-507.05"/>
<polygon fill="black" stroke="black" points="389.53,-505.33 384.51,-507.04 389.5,-508.83 389.53,-505.33"/>
</g>
<!-- cons&#45;8490870082613382153&#45;&gt;Int&#45;10912160959110460649 -->
<g id="edge7" class="edge">
<title>cons&#45;8490870082613382153:s&#45;&gt;Int&#45;10912160959110460649</title>
<path fill="none" stroke="black" d="M913,-569C913,-506.29 918,-490.71 918,-428 918,-428 918,-428 918,-347 918,-301.53 934.64,-283.22 910,-245 895.18,-222.02 867.03,-207.98 844.69,-200"/>
<polygon fill="black" stroke="black" points="848.69,-199.74 843.4,-199.48 847.37,-202.99 848.69,-199.74"/>
</g>
<!-- Int&#45;10912160959110460649&#45;&gt;i64&#45;10912160959110460649 -->
<g id="edge22" class="edge">
<title>Int&#45;10912160959110460649:s&#45;&gt;i64&#45;10912160959110460649</title>
<path fill="none" stroke="black" d="M812,-174C812,-161.22 812,-146.96 812,-135.35"/>
<polygon fill="black" stroke="black" points="813.75,-138.51 812,-133.51 810.25,-138.51 813.75,-138.51"/>
</g>
<!-- cons&#45;10403444018641964525&#45;&gt;nil&#45;0 -->
<g id="edge10" class="edge">
<title>cons&#45;10403444018641964525:s&#45;&gt;nil&#45;0</title>
<path fill="none" stroke="black" d="M392,-253C392,-176.29 102.44,-269.03 49,-214 28.98,-193.38 31.07,-158.09 35.32,-134.9"/>
<polygon fill="black" stroke="black" points="35.61,-138.68 35.96,-133.39 32.39,-137.3 35.61,-138.68"/>
</g>
<!-- cons&#45;10403444018641964525&#45;&gt;Int&#45;11743562013128004906 -->
<g id="edge9" class="edge">
<title>cons&#45;10403444018641964525:s&#45;&gt;Int&#45;11743562013128004906</title>
<path fill="none" stroke="black" d="M374,-253C374,-220.41 476.32,-202.26 530.79,-194.91"/>
<polygon fill="black" stroke="black" points="528.14,-197.41 532.54,-194.45 527.26,-194.03 528.14,-197.41"/>
</g>
<!-- Int&#45;11743562013128004906&#45;&gt;i64&#45;11743562013128004906 -->
<g id="edge18" class="edge">
<title>Int&#45;11743562013128004906:s&#45;&gt;i64&#45;11743562013128004906</title>
<path fill="none" stroke="black" d="M564,-174C564,-161.22 564,-146.96 564,-135.35"/>
<polygon fill="black" stroke="black" points="565.75,-138.51 564,-133.51 562.25,-138.51 565.75,-138.51"/>
</g>
<!-- cons&#45;6860772004325508473&#45;&gt;cons&#45;8490870082613382153 -->
<g id="edge12" class="edge">
<title>cons&#45;6860772004325508473:s&#45;&gt;cons&#45;8490870082613382153</title>
<path fill="none" stroke="black" d="M950,-648C950,-633.99 943.99,-619.66 937.54,-608.31"/>
<polygon fill="black" stroke="black" points="941.11,-609.53 936.4,-607.1 938.56,-611.94 941.11,-609.53"/>
</g>
<!-- cons&#45;6860772004325508473&#45;&gt;Slist&#45;15952540911656918845 -->
<g id="edge11" class="edge">
<title>cons&#45;6860772004325508473:s&#45;&gt;Slist&#45;15952540911656918845</title>
<path fill="none" stroke="black" d="M932,-648C932,-628.31 947.77,-627.98 953,-609 968.19,-553.91 965.85,-485.84 963.21,-450.97"/>
<polygon fill="black" stroke="black" points="965.51,-454.14 962.96,-449.49 962.06,-454.71 965.51,-454.14"/>
</g>
<!-- Slist&#45;15952540911656918845&#45;&gt;cons&#45;10080759905092916392 -->
<g id="edge19" class="edge">
<title>Slist&#45;15952540911656918845:s&#45;&gt;cons&#45;10080759905092916392</title>
<path fill="none" stroke="black" d="M961,-411C961,-398.22 961,-383.96 961,-372.35"/>
<polygon fill="black" stroke="black" points="962.75,-375.51 961,-370.51 959.25,-375.51 962.75,-375.51"/>
</g>
<!-- cons&#45;10080759905092916392&#45;&gt;cons&#45;10403444018641964525 -->
<g id="edge14" class="edge">
<title>cons&#45;10080759905092916392:s&#45;&gt;cons&#45;10403444018641964525</title>
<path fill="none" stroke="black" d="M970,-332C970,-270.51 476.25,-312.69 418,-293 417.55,-292.85 417.09,-292.69 416.64,-292.52"/>
<polygon fill="black" stroke="black" points="417.48,-290.98 412.2,-290.6 416.09,-294.19 417.48,-290.98"/>
</g>
<!-- cons&#45;10080759905092916392&#45;&gt;Int&#45;5871781006564002453 -->
<g id="edge13" class="edge">
<title>cons&#45;10080759905092916392:s&#45;&gt;Int&#45;5871781006564002453</title>
<path fill="none" stroke="black" d="M952,-332C952,-233.57 1106.83,-368.48 1170,-293 1183.69,-276.64 1180.85,-263.37 1170,-245 1155.94,-221.2 1127.24,-207.18 1104.51,-199.41"/>
<polygon fill="black" stroke="black" points="1108.71,-199.11 1103.42,-199.01 1107.49,-202.39 1108.71,-199.11"/>
</g>
<!-- Int&#45;5871781006564002453&#45;&gt;i64&#45;5871781006564002453 -->
<g id="edge25" class="edge">
<title>Int&#45;5871781006564002453:s&#45;&gt;i64&#45;5871781006564002453</title>
<path fill="none" stroke="black" d="M1072,-174C1072,-161.22 1072,-146.96 1072,-135.35"/>
<polygon fill="black" stroke="black" points="1073.75,-138.51 1072,-133.51 1070.25,-138.51 1073.75,-138.51"/>
</g>
<!-- cons&#45;5560862265647807533&#45;&gt;cons&#45;4604575297633516347 -->
<g id="edge16" class="edge">
<title>cons&#45;5560862265647807533:s&#45;&gt;cons&#45;4604575297633516347</title>
<path fill="none" stroke="black" d="M66,-253C66,-239.87 69.02,-225.56 72.26,-213.99"/>
<polygon fill="black" stroke="black" points="72.2,-217.48 73.28,-212.3 69.2,-215.68 72.2,-217.48"/>
</g>
<!-- cons&#45;5560862265647807533&#45;&gt;Int&#45;17615343019692007359 -->
<g id="edge15" class="edge">
<title>cons&#45;5560862265647807533:s&#45;&gt;Int&#45;17615343019692007359</title>
<path fill="none" stroke="black" d="M48,-253C48,-234.96 164.42,-209.21 223.06,-197.38"/>
<polygon fill="black" stroke="black" points="220.67,-200.29 224.6,-196.74 219.32,-197.06 220.67,-200.29"/>
</g>
<!-- Int&#45;17615343019692007359&#45;&gt;i64&#45;17615343019692007359 -->
<g id="edge23" class="edge">
<title>Int&#45;17615343019692007359:s&#45;&gt;i64&#45;17615343019692007359</title>
<path fill="none" stroke="black" d="M256,-174C256,-161.22 256,-146.96 256,-135.35"/>
<polygon fill="black" stroke="black" points="257.75,-138.51 256,-133.51 254.25,-138.51 257.75,-138.51"/>
</g>
<!-- Slist&#45;7586556743040283621&#45;&gt;cons&#45;6860772004325508473 -->
<g id="edge21" class="edge">
<title>Slist&#45;7586556743040283621:s&#45;&gt;cons&#45;6860772004325508473</title>
<path fill="none" stroke="black" d="M941,-727C941,-714.22 941,-699.96 941,-688.35"/>
<polygon fill="black" stroke="black" points="942.75,-691.51 941,-686.51 939.25,-691.51 942.75,-691.51"/>
</g>
<!-- edge&#45;9572042964624420268&#45;&gt;Int&#45;16783941965674463102 -->
<g id="edge27" class="edge">
<title>edge&#45;9572042964624420268:s&#45;&gt;Int&#45;16783941965674463102</title>
<path fill="none" stroke="black" d="M582.5,-253C582.5,-211.12 443.01,-197.04 377.39,-192.73"/>
<polygon fill="black" stroke="black" points="380.68,-191.36 375.5,-192.5 380.26,-194.84 380.68,-191.36"/>
</g>
<!-- edge&#45;9572042964624420268&#45;&gt;Int&#45;11743562013128004906 -->
<g id="edge26" class="edge">
<title>edge&#45;9572042964624420268:s&#45;&gt;Int&#45;11743562013128004906</title>
<path fill="none" stroke="black" d="M563.5,-253C563.5,-240.22 563.61,-225.96 563.72,-214.35"/>
<polygon fill="black" stroke="black" points="565.41,-217.55 563.76,-212.51 561.91,-217.48 565.41,-217.55"/>
</g>
<!-- edge&#45;8740641910606876011&#45;&gt;Int&#45;10912160959110460649 -->
<g id="edge29" class="edge">
<title>edge&#45;8740641910606876011:s&#45;&gt;Int&#45;10912160959110460649</title>
<path fill="none" stroke="black" d="M706.5,-253C706.5,-218.84 748.11,-203.13 779.07,-196.17"/>
<polygon fill="black" stroke="black" points="776.73,-199.11 780.61,-195.5 775.33,-195.9 776.73,-199.11"/>
</g>
<!-- edge&#45;8740641910606876011&#45;&gt;Int&#45;11743562013128004906 -->
<g id="edge28" class="edge">
<title>edge&#45;8740641910606876011:s&#45;&gt;Int&#45;11743562013128004906</title>
<path fill="none" stroke="black" d="M687.5,-253C687.5,-212.4 633.54,-198.39 596.96,-193.55"/>
<polygon fill="black" stroke="black" points="600.74,-192.7 595.47,-193.17 599.88,-196.1 600.74,-192.7"/>
</g>
<!-- edge&#45;11868447927124751835&#45;&gt;Int&#45;10912160959110460649 -->
<g id="edge30" class="edge">
<title>edge&#45;11868447927124751835:s&#45;&gt;Int&#45;10912160959110460649</title>
<path fill="none" stroke="black" d="M439.5,-253C439.5,-235.87 687.74,-205.39 778.92,-194.77"/>
<polygon fill="black" stroke="black" points="776.07,-197.25 780.53,-194.39 775.26,-193.84 776.07,-197.25"/>
</g>
<!-- edge&#45;11868447927124751835&#45;&gt;Int&#45;17615343019692007359 -->
<g id="edge31" class="edge">
<title>edge&#45;11868447927124751835:s&#45;&gt;Int&#45;17615343019692007359</title>
<path fill="none" stroke="black" d="M458.5,-253C458.5,-186.05 376.49,-235.23 313,-214 305.02,-211.33 296.54,-208.12 288.63,-204.96"/>
<polygon fill="black" stroke="black" points="292.57,-205.07 287.34,-204.27 290.93,-208.16 292.57,-205.07"/>
</g>
<!-- edge&#45;15318938057191675792&#45;&gt;Int&#45;5040379952546458196 -->
<g id="edge33" class="edge">
<title>edge&#45;15318938057191675792:s&#45;&gt;Int&#45;5040379952546458196</title>
<path fill="none" stroke="black" d="M132.5,-253C132.5,-211.53 132.28,-163.19 132.13,-135.24"/>
<polygon fill="black" stroke="black" points="133.92,-138.49 132.11,-133.51 130.42,-138.53 133.92,-138.49"/>
</g>
<!-- edge&#45;15318938057191675792&#45;&gt;Int&#45;16783941965674463102 -->
<g id="edge32" class="edge">
<title>edge&#45;15318938057191675792:s&#45;&gt;Int&#45;16783941965674463102</title>
<path fill="none" stroke="black" d="M113.5,-253C113.5,-213.48 249.27,-225.77 287,-214 294.96,-211.52 303.36,-208.41 311.2,-205.29"/>
<polygon fill="black" stroke="black" points="308.93,-208.36 312.64,-204.58 307.38,-205.22 308.93,-208.36"/>
</g>
<!-- edge&#45;2743974990046126629&#45;&gt;Int&#45;16783941965674463102 -->
<g id="edge34" class="edge">
<title>edge&#45;2743974990046126629:s&#45;&gt;Int&#45;16783941965674463102</title>
<path fill="none" stroke="black" d="M237.5,-253C237.5,-244.34 280.11,-221.83 311.42,-206.46"/>
<polygon fill="black" stroke="black" points="309.64,-209.82 312.76,-205.53 307.65,-206.94 309.64,-209.82"/>
</g>
<!-- edge&#45;2743974990046126629&#45;&gt;Int&#45;17615343019692007359 -->
<g id="edge35" class="edge">
<title>edge&#45;2743974990046126629:s&#45;&gt;Int&#45;17615343019692007359</title>
<path fill="none" stroke="black" d="M256.5,-253C256.5,-240.22 256.39,-225.96 256.28,-214.35"/>
<polygon fill="black" stroke="black" points="258.09,-217.48 256.24,-212.51 254.59,-217.55 258.09,-217.48"/>
</g>
<!-- edge&#45;5996666920560749382&#45;&gt;Int&#45;5040379952546458196 -->
<g id="edge37" class="edge">
<title>edge&#45;5996666920560749382:s&#45;&gt;Int&#45;5040379952546458196</title>
<path fill="none" stroke="black" d="M830.5,-253C830.5,-225.1 622.23,-172.05 595,-166 433.91,-130.19 387.83,-161.78 225,-135 204.65,-131.65 182.2,-126.15 164.45,-121.37"/>
<polygon fill="black" stroke="black" points="168.42,-121.85 163.27,-120.6 166.51,-124.79 168.42,-121.85"/>
</g>
<!-- edge&#45;5996666920560749382&#45;&gt;Int&#45;10912160959110460649 -->
<g id="edge36" class="edge">
<title>edge&#45;5996666920560749382:s&#45;&gt;Int&#45;10912160959110460649</title>
<path fill="none" stroke="black" d="M811.5,-253C811.5,-240.22 811.61,-225.96 811.72,-214.35"/>
<polygon fill="black" stroke="black" points="813.41,-217.55 811.76,-212.51 809.91,-217.48 813.41,-217.55"/>
</g>
<!-- edge&#45;5871781006564002453&#45;&gt;Int&#45;10912160959110460649 -->
<g id="edge39" class="edge">
<title>edge&#45;5871781006564002453:s&#45;&gt;Int&#45;10912160959110460649</title>
<path fill="none" stroke="black" d="M1090.5,-253C1090.5,-203.29 919.34,-193.42 845.38,-191.47"/>
<polygon fill="black" stroke="black" points="848.59,-189.87 843.51,-191.39 848.43,-193.36 848.59,-189.87"/>
</g>
<!-- edge&#45;5871781006564002453&#45;&gt;Int&#45;5871781006564002453 -->
<g id="edge38" class="edge">
<title>edge&#45;5871781006564002453:s&#45;&gt;Int&#45;5871781006564002453</title>
<path fill="none" stroke="black" d="M1071.5,-253C1071.5,-240.22 1071.61,-225.96 1071.72,-214.35"/>
<polygon fill="black" stroke="black" points="1073.41,-217.55 1071.76,-212.51 1069.91,-217.48 1073.41,-217.55"/>
</g>
<!-- edge&#45;11743562013128004906&#45;&gt;Int&#45;16783941965674463102 -->
<g id="edge41" class="edge">
<title>edge&#45;11743562013128004906:s&#45;&gt;Int&#45;16783941965674463102</title>
<path fill="none" stroke="black" d="M966.5,-253C966.5,-227.64 935.2,-247.82 910,-245 742.92,-226.32 700.25,-231.05 533,-214 478.29,-208.42 414.86,-200.38 377.16,-195.43"/>
<polygon fill="black" stroke="black" points="380.74,-194.56 375.46,-194.99 379.86,-197.95 380.74,-194.56"/>
</g>
<!-- edge&#45;11743562013128004906&#45;&gt;Int&#45;5871781006564002453 -->
<g id="edge40" class="edge">
<title>edge&#45;11743562013128004906:s&#45;&gt;Int&#45;5871781006564002453</title>
<path fill="none" stroke="black" d="M947.5,-253C947.5,-212.03 1002.2,-198.13 1039.08,-193.42"/>
<polygon fill="black" stroke="black" points="1036.11,-195.97 1040.53,-193.06 1035.26,-192.57 1036.11,-195.97"/>
</g>
<!-- nil&#45;0 -->
<g id="node1" class="node">
<title>nil&#45;0</title>
<g id="a_node1"><a xlink:title="7: nil&#45;0">
<path fill="white" stroke="none" d="M35.67,-95C35.67,-95 46.33,-95 46.33,-95 51.67,-95 57,-100.33 57,-105.67 57,-105.67 57,-116.33 57,-116.33 57,-121.67 51.67,-127 46.33,-127 46.33,-127 35.67,-127 35.67,-127 30.33,-127 25,-121.67 25,-116.33 25,-116.33 25,-105.67 25,-105.67 25,-100.33 30.33,-95 35.67,-95"/>
<text text-anchor="start" x="34.25" y="-105.2" font-family="Helvetica,sans-Serif" font-size="14.00">nil</text>
<path fill="none" stroke="black" d="M35.67,-95C35.67,-95 46.33,-95 46.33,-95 51.67,-95 57,-100.33 57,-105.67 57,-105.67 57,-116.33 57,-116.33 57,-121.67 51.67,-127 46.33,-127 46.33,-127 35.67,-127 35.67,-127 30.33,-127 25,-121.67 25,-116.33 25,-116.33 25,-105.67 25,-105.67 25,-100.33 30.33,-95 35.67,-95"/>
</a>
</g>
</g>
<!-- cons&#45;4604575297633516347 -->
<g id="node2" class="node">
<title>cons&#45;4604575297633516347</title>
<g id="a_node2"><a xlink:title="11: cons&#45;4604575297633516347">
<path fill="white" stroke="none" d="M71.67,-174C71.67,-174 88.33,-174 88.33,-174 93.67,-174 99,-179.33 99,-184.67 99,-184.67 99,-195.33 99,-195.33 99,-200.67 93.67,-206 88.33,-206 88.33,-206 71.67,-206 71.67,-206 66.33,-206 61,-200.67 61,-195.33 61,-195.33 61,-184.67 61,-184.67 61,-179.33 66.33,-174 71.67,-174"/>
<text text-anchor="start" x="66" y="-184.2" font-family="Helvetica,sans-Serif" font-size="14.00">cons</text>
<path fill="none" stroke="black" d="M71.67,-174C71.67,-174 88.33,-174 88.33,-174 93.67,-174 99,-179.33 99,-184.67 99,-184.67 99,-195.33 99,-195.33 99,-200.67 93.67,-206 88.33,-206 88.33,-206 71.67,-206 71.67,-206 66.33,-206 61,-200.67 61,-195.33 61,-195.33 61,-184.67 61,-184.67 61,-179.33 66.33,-174 71.67,-174"/>
</a>
</g>
</g>
<!-- Int&#45;5040379952546458196 -->
<g id="node3" class="node">
<title>Int&#45;5040379952546458196</title>
<g id="a_node3"><a xlink:title="4: Int&#45;5040379952546458196">
<path fill="white" stroke="none" d="M126.67,-95C126.67,-95 137.33,-95 137.33,-95 142.67,-95 148,-100.33 148,-105.67 148,-105.67 148,-116.33 148,-116.33 148,-121.67 142.67,-127 137.33,-127 137.33,-127 126.67,-127 126.67,-127 121.33,-127 116,-121.67 116,-116.33 116,-116.33 116,-105.67 116,-105.67 116,-100.33 121.33,-95 126.67,-95"/>
<text text-anchor="start" x="124.5" y="-105.2" font-family="Helvetica,sans-Serif" font-size="14.00">Int</text>
<path fill="none" stroke="black" d="M126.67,-95C126.67,-95 137.33,-95 137.33,-95 142.67,-95 148,-100.33 148,-105.67 148,-105.67 148,-116.33 148,-116.33 148,-121.67 142.67,-127 137.33,-127 137.33,-127 126.67,-127 126.67,-127 121.33,-127 116,-121.67 116,-116.33 116,-116.33 116,-105.67 116,-105.67 116,-100.33 121.33,-95 126.67,-95"/>
</a>
</g>
</g>
<!-- cons&#45;249771827993493858 -->
<g id="node4" class="node">
<title>cons&#45;249771827993493858</title>
<g id="a_node4"><a xlink:title="15: cons&#45;249771827993493858">
<path fill="white" stroke="none" d="M344.67,-490C344.67,-490 361.33,-490 361.33,-490 366.67,-490 372,-495.33 372,-500.67 372,-500.67 372,-511.33 372,-511.33 372,-516.67 366.67,-522 361.33,-522 361.33,-522 344.67,-522 344.67,-522 339.33,-522 334,-516.67 334,-511.33 334,-511.33 334,-500.67 334,-500.67 334,-495.33 339.33,-490 344.67,-490"/>
<text text-anchor="start" x="339" y="-500.2" font-family="Helvetica,sans-Serif" font-size="14.00">cons</text>
<path fill="none" stroke="black" d="M344.67,-490C344.67,-490 361.33,-490 361.33,-490 366.67,-490 372,-495.33 372,-500.67 372,-500.67 372,-511.33 372,-511.33 372,-516.67 366.67,-522 361.33,-522 361.33,-522 344.67,-522 344.67,-522 339.33,-522 334,-516.67 334,-511.33 334,-511.33 334,-500.67 334,-500.67 334,-495.33 339.33,-490 344.67,-490"/>
</a>
</g>
</g>
<!-- Int&#45;16783941965674463102 -->
<g id="node5" class="node">
<title>Int&#45;16783941965674463102</title>
<g id="a_node5"><a xlink:title="2: Int&#45;16783941965674463102">
<path fill="white" stroke="none" d="M338.67,-174C338.67,-174 349.33,-174 349.33,-174 354.67,-174 360,-179.33 360,-184.67 360,-184.67 360,-195.33 360,-195.33 360,-200.67 354.67,-206 349.33,-206 349.33,-206 338.67,-206 338.67,-206 333.33,-206 328,-200.67 328,-195.33 328,-195.33 328,-184.67 328,-184.67 328,-179.33 333.33,-174 338.67,-174"/>
<text text-anchor="start" x="336.5" y="-184.2" font-family="Helvetica,sans-Serif" font-size="14.00">Int</text>
<path fill="none" stroke="black" d="M338.67,-174C338.67,-174 349.33,-174 349.33,-174 354.67,-174 360,-179.33 360,-184.67 360,-184.67 360,-195.33 360,-195.33 360,-200.67 354.67,-206 349.33,-206 349.33,-206 338.67,-206 338.67,-206 333.33,-206 328,-200.67 328,-195.33 328,-195.33 328,-184.67 328,-184.67 328,-179.33 333.33,-174 338.67,-174"/>
</a>
</g>
</g>
<!-- cons&#45;4585305698939538527 -->
<g id="node6" class="node">
<title>cons&#45;4585305698939538527</title>
<g id="a_node6"><a xlink:title="14: cons&#45;4585305698939538527">
<path fill="white" stroke="none" d="M57.67,-411C57.67,-411 74.33,-411 74.33,-411 79.67,-411 85,-416.33 85,-421.67 85,-421.67 85,-432.33 85,-432.33 85,-437.67 79.67,-443 74.33,-443 74.33,-443 57.67,-443 57.67,-443 52.33,-443 47,-437.67 47,-432.33 47,-432.33 47,-421.67 47,-421.67 47,-416.33 52.33,-411 57.67,-411"/>
<text text-anchor="start" x="52" y="-421.2" font-family="Helvetica,sans-Serif" font-size="14.00">cons</text>
<path fill="none" stroke="black" d="M57.67,-411C57.67,-411 74.33,-411 74.33,-411 79.67,-411 85,-416.33 85,-421.67 85,-421.67 85,-432.33 85,-432.33 85,-437.67 79.67,-443 74.33,-443 74.33,-443 57.67,-443 57.67,-443 52.33,-443 47,-437.67 47,-432.33 47,-432.33 47,-421.67 47,-421.67 47,-416.33 52.33,-411 57.67,-411"/>
</a>
</g>
</g>
<!-- Slist&#45;15121139857639374588 -->
<g id="node7" class="node">
<title>Slist&#45;15121139857639374588</title>
<g id="a_node7"><a xlink:title="13: Slist&#45;15121139857639374588">
<path fill="white" stroke="none" d="M49.92,-332C49.92,-332 64.08,-332 64.08,-332 69.42,-332 74.75,-337.33 74.75,-342.67 74.75,-342.67 74.75,-353.33 74.75,-353.33 74.75,-358.67 69.42,-364 64.08,-364 64.08,-364 49.92,-364 49.92,-364 44.58,-364 39.25,-358.67 39.25,-353.33 39.25,-353.33 39.25,-342.67 39.25,-342.67 39.25,-337.33 44.58,-332 49.92,-332"/>
<text text-anchor="start" x="44.25" y="-342.2" font-family="Helvetica,sans-Serif" font-size="14.00">Slist</text>
<path fill="none" stroke="black" d="M49.92,-332C49.92,-332 64.08,-332 64.08,-332 69.42,-332 74.75,-337.33 74.75,-342.67 74.75,-342.67 74.75,-353.33 74.75,-353.33 74.75,-358.67 69.42,-364 64.08,-364 64.08,-364 49.92,-364 49.92,-364 44.58,-364 39.25,-358.67 39.25,-353.33 39.25,-353.33 39.25,-342.67 39.25,-342.67 39.25,-337.33 44.58,-332 49.92,-332"/>
</a>
</g>
</g>
<!-- cons&#45;8490870082613382153 -->
<g id="node8" class="node">
<title>cons&#45;8490870082613382153</title>
<g id="a_node8"><a xlink:title="16: cons&#45;8490870082613382153">
<path fill="white" stroke="none" d="M913.67,-569C913.67,-569 930.33,-569 930.33,-569 935.67,-569 941,-574.33 941,-579.67 941,-579.67 941,-590.33 941,-590.33 941,-595.67 935.67,-601 930.33,-601 930.33,-601 913.67,-601 913.67,-601 908.33,-601 903,-595.67 903,-590.33 903,-590.33 903,-579.67 903,-579.67 903,-574.33 908.33,-569 913.67,-569"/>
<text text-anchor="start" x="908" y="-579.2" font-family="Helvetica,sans-Serif" font-size="14.00">cons</text>
<path fill="none" stroke="black" d="M913.67,-569C913.67,-569 930.33,-569 930.33,-569 935.67,-569 941,-574.33 941,-579.67 941,-579.67 941,-590.33 941,-590.33 941,-595.67 935.67,-601 930.33,-601 930.33,-601 913.67,-601 913.67,-601 908.33,-601 903,-595.67 903,-590.33 903,-590.33 903,-579.67 903,-579.67 903,-574.33 908.33,-569 913.67,-569"/>
</a>
</g>
</g>
<!-- Int&#45;10912160959110460649 -->
<g id="node9" class="node">
<title>Int&#45;10912160959110460649</title>
<g id="a_node9"><a xlink:title="1: Int&#45;10912160959110460649">
<path fill="white" stroke="none" d="M806.67,-174C806.67,-174 817.33,-174 817.33,-174 822.67,-174 828,-179.33 828,-184.67 828,-184.67 828,-195.33 828,-195.33 828,-200.67 822.67,-206 817.33,-206 817.33,-206 806.67,-206 806.67,-206 801.33,-206 796,-200.67 796,-195.33 796,-195.33 796,-184.67 796,-184.67 796,-179.33 801.33,-174 806.67,-174"/>
<text text-anchor="start" x="804.5" y="-184.2" font-family="Helvetica,sans-Serif" font-size="14.00">Int</text>
<path fill="none" stroke="black" d="M806.67,-174C806.67,-174 817.33,-174 817.33,-174 822.67,-174 828,-179.33 828,-184.67 828,-184.67 828,-195.33 828,-195.33 828,-200.67 822.67,-206 817.33,-206 817.33,-206 806.67,-206 806.67,-206 801.33,-206 796,-200.67 796,-195.33 796,-195.33 796,-184.67 796,-184.67 796,-179.33 801.33,-174 806.67,-174"/>
</a>
</g>
</g>
<!-- cons&#45;10403444018641964525 -->
<g id="node10" class="node">
<title>cons&#45;10403444018641964525</title>
<g id="a_node10"><a xlink:title="8: cons&#45;10403444018641964525">
<path fill="white" stroke="none" d="M374.67,-253C374.67,-253 391.33,-253 391.33,-253 396.67,-253 402,-258.33 402,-263.67 402,-263.67 402,-274.33 402,-274.33 402,-279.67 396.67,-285 391.33,-285 391.33,-285 374.67,-285 374.67,-285 369.33,-285 364,-279.67 364,-274.33 364,-274.33 364,-263.67 364,-263.67 364,-258.33 369.33,-253 374.67,-253"/>
<text text-anchor="start" x="369" y="-263.2" font-family="Helvetica,sans-Serif" font-size="14.00">cons</text>
<path fill="none" stroke="black" d="M374.67,-253C374.67,-253 391.33,-253 391.33,-253 396.67,-253 402,-258.33 402,-263.67 402,-263.67 402,-274.33 402,-274.33 402,-279.67 396.67,-285 391.33,-285 391.33,-285 374.67,-285 374.67,-285 369.33,-285 364,-279.67 364,-274.33 364,-274.33 364,-263.67 364,-263.67 364,-258.33 369.33,-253 374.67,-253"/>
</a>
</g>
</g>
<!-- Int&#45;11743562013128004906 -->
<g id="node11" class="node">
<title>Int&#45;11743562013128004906</title>
<g id="a_node11"><a xlink:title="3: Int&#45;11743562013128004906">
<path fill="white" stroke="none" d="M558.67,-174C558.67,-174 569.33,-174 569.33,-174 574.67,-174 580,-179.33 580,-184.67 580,-184.67 580,-195.33 580,-195.33 580,-200.67 574.67,-206 569.33,-206 569.33,-206 558.67,-206 558.67,-206 553.33,-206 548,-200.67 548,-195.33 548,-195.33 548,-184.67 548,-184.67 548,-179.33 553.33,-174 558.67,-174"/>
<text text-anchor="start" x="556.5" y="-184.2" font-family="Helvetica,sans-Serif" font-size="14.00">Int</text>
<path fill="none" stroke="black" d="M558.67,-174C558.67,-174 569.33,-174 569.33,-174 574.67,-174 580,-179.33 580,-184.67 580,-184.67 580,-195.33 580,-195.33 580,-200.67 574.67,-206 569.33,-206 569.33,-206 558.67,-206 558.67,-206 553.33,-206 548,-200.67 548,-195.33 548,-195.33 548,-184.67 548,-184.67 548,-179.33 553.33,-174 558.67,-174"/>
</a>
</g>
</g>
<!-- cons&#45;6860772004325508473 -->
<g id="node12" class="node">
<title>cons&#45;6860772004325508473</title>
<g id="a_node12"><a xlink:title="17: cons&#45;6860772004325508473">
<path fill="white" stroke="none" d="M932.67,-648C932.67,-648 949.33,-648 949.33,-648 954.67,-648 960,-653.33 960,-658.67 960,-658.67 960,-669.33 960,-669.33 960,-674.67 954.67,-680 949.33,-680 949.33,-680 932.67,-680 932.67,-680 927.33,-680 922,-674.67 922,-669.33 922,-669.33 922,-658.67 922,-658.67 922,-653.33 927.33,-648 932.67,-648"/>
<text text-anchor="start" x="927" y="-658.2" font-family="Helvetica,sans-Serif" font-size="14.00">cons</text>
<path fill="none" stroke="black" d="M932.67,-648C932.67,-648 949.33,-648 949.33,-648 954.67,-648 960,-653.33 960,-658.67 960,-658.67 960,-669.33 960,-669.33 960,-674.67 954.67,-680 949.33,-680 949.33,-680 932.67,-680 932.67,-680 927.33,-680 922,-674.67 922,-669.33 922,-669.33 922,-658.67 922,-658.67 922,-653.33 927.33,-648 932.67,-648"/>
</a>
</g>
</g>
<!-- Slist&#45;15952540911656918845 -->
<g id="node13" class="node">
<title>Slist&#45;15952540911656918845</title>
<g id="a_node13"><a xlink:title="10: Slist&#45;15952540911656918845">
<path fill="white" stroke="none" d="M953.92,-411C953.92,-411 968.08,-411 968.08,-411 973.42,-411 978.75,-416.33 978.75,-421.67 978.75,-421.67 978.75,-432.33 978.75,-432.33 978.75,-437.67 973.42,-443 968.08,-443 968.08,-443 953.92,-443 953.92,-443 948.58,-443 943.25,-437.67 943.25,-432.33 943.25,-432.33 943.25,-421.67 943.25,-421.67 943.25,-416.33 948.58,-411 953.92,-411"/>
<text text-anchor="start" x="948.25" y="-421.2" font-family="Helvetica,sans-Serif" font-size="14.00">Slist</text>
<path fill="none" stroke="black" d="M953.92,-411C953.92,-411 968.08,-411 968.08,-411 973.42,-411 978.75,-416.33 978.75,-421.67 978.75,-421.67 978.75,-432.33 978.75,-432.33 978.75,-437.67 973.42,-443 968.08,-443 968.08,-443 953.92,-443 953.92,-443 948.58,-443 943.25,-437.67 943.25,-432.33 943.25,-432.33 943.25,-421.67 943.25,-421.67 943.25,-416.33 948.58,-411 953.92,-411"/>
</a>
</g>
</g>
<!-- cons&#45;10080759905092916392 -->
<g id="node14" class="node">
<title>cons&#45;10080759905092916392</title>
<g id="a_node14"><a xlink:title="9: cons&#45;10080759905092916392">
<path fill="white" stroke="none" d="M952.67,-332C952.67,-332 969.33,-332 969.33,-332 974.67,-332 980,-337.33 980,-342.67 980,-342.67 980,-353.33 980,-353.33 980,-358.67 974.67,-364 969.33,-364 969.33,-364 952.67,-364 952.67,-364 947.33,-364 942,-358.67 942,-353.33 942,-353.33 942,-342.67 942,-342.67 942,-337.33 947.33,-332 952.67,-332"/>
<text text-anchor="start" x="947" y="-342.2" font-family="Helvetica,sans-Serif" font-size="14.00">cons</text>
<path fill="none" stroke="black" d="M952.67,-332C952.67,-332 969.33,-332 969.33,-332 974.67,-332 980,-337.33 980,-342.67 980,-342.67 980,-353.33 980,-353.33 980,-358.67 974.67,-364 969.33,-364 969.33,-364 952.67,-364 952.67,-364 947.33,-364 942,-358.67 942,-353.33 942,-353.33 942,-342.67 942,-342.67 942,-337.33 947.33,-332 952.67,-332"/>
</a>
</g>
</g>
<!-- Int&#45;5871781006564002453 -->
<g id="node15" class="node">
<title>Int&#45;5871781006564002453</title>
<g id="a_node15"><a xlink:title="0: Int&#45;5871781006564002453">
<path fill="white" stroke="none" d="M1066.67,-174C1066.67,-174 1077.33,-174 1077.33,-174 1082.67,-174 1088,-179.33 1088,-184.67 1088,-184.67 1088,-195.33 1088,-195.33 1088,-200.67 1082.67,-206 1077.33,-206 1077.33,-206 1066.67,-206 1066.67,-206 1061.33,-206 1056,-200.67 1056,-195.33 1056,-195.33 1056,-184.67 1056,-184.67 1056,-179.33 1061.33,-174 1066.67,-174"/>
<text text-anchor="start" x="1064.5" y="-184.2" font-family="Helvetica,sans-Serif" font-size="14.00">Int</text>
<path fill="none" stroke="black" d="M1066.67,-174C1066.67,-174 1077.33,-174 1077.33,-174 1082.67,-174 1088,-179.33 1088,-184.67 1088,-184.67 1088,-195.33 1088,-195.33 1088,-200.67 1082.67,-206 1077.33,-206 1077.33,-206 1066.67,-206 1066.67,-206 1061.33,-206 1056,-200.67 1056,-195.33 1056,-195.33 1056,-184.67 1056,-184.67 1056,-179.33 1061.33,-174 1066.67,-174"/>
</a>
</g>
</g>
<!-- cons&#45;5560862265647807533 -->
<g id="node16" class="node">
<title>cons&#45;5560862265647807533</title>
<g id="a_node16"><a xlink:title="12: cons&#45;5560862265647807533">
<path fill="white" stroke="none" d="M48.67,-253C48.67,-253 65.33,-253 65.33,-253 70.67,-253 76,-258.33 76,-263.67 76,-263.67 76,-274.33 76,-274.33 76,-279.67 70.67,-285 65.33,-285 65.33,-285 48.67,-285 48.67,-285 43.33,-285 38,-279.67 38,-274.33 38,-274.33 38,-263.67 38,-263.67 38,-258.33 43.33,-253 48.67,-253"/>
<text text-anchor="start" x="43" y="-263.2" font-family="Helvetica,sans-Serif" font-size="14.00">cons</text>
<path fill="none" stroke="black" d="M48.67,-253C48.67,-253 65.33,-253 65.33,-253 70.67,-253 76,-258.33 76,-263.67 76,-263.67 76,-274.33 76,-274.33 76,-279.67 70.67,-285 65.33,-285 65.33,-285 48.67,-285 48.67,-285 43.33,-285 38,-279.67 38,-274.33 38,-274.33 38,-263.67 38,-263.67 38,-258.33 43.33,-253 48.67,-253"/>
</a>
</g>
</g>
<!-- Int&#45;17615343019692007359 -->
<g id="node17" class="node">
<title>Int&#45;17615343019692007359</title>
<g id="a_node17"><a xlink:title="5: Int&#45;17615343019692007359">
<path fill="white" stroke="none" d="M250.67,-174C250.67,-174 261.33,-174 261.33,-174 266.67,-174 272,-179.33 272,-184.67 272,-184.67 272,-195.33 272,-195.33 272,-200.67 266.67,-206 261.33,-206 261.33,-206 250.67,-206 250.67,-206 245.33,-206 240,-200.67 240,-195.33 240,-195.33 240,-184.67 240,-184.67 240,-179.33 245.33,-174 250.67,-174"/>
<text text-anchor="start" x="248.5" y="-184.2" font-family="Helvetica,sans-Serif" font-size="14.00">Int</text>
<path fill="none" stroke="black" d="M250.67,-174C250.67,-174 261.33,-174 261.33,-174 266.67,-174 272,-179.33 272,-184.67 272,-184.67 272,-195.33 272,-195.33 272,-200.67 266.67,-206 261.33,-206 261.33,-206 250.67,-206 250.67,-206 245.33,-206 240,-200.67 240,-195.33 240,-195.33 240,-184.67 240,-184.67 240,-179.33 245.33,-174 250.67,-174"/>
</a>
</g>
</g>
<!-- i64&#45;5040379952546458196 -->
<g id="node18" class="node">
<title>i64&#45;5040379952546458196</title>
<g id="a_node18"><a xlink:title="i64&#45;5040379952546458196: i64&#45;5040379952546458196">
<path fill="white" stroke="none" d="M126.67,-16C126.67,-16 137.33,-16 137.33,-16 142.67,-16 148,-21.33 148,-26.67 148,-26.67 148,-37.33 148,-37.33 148,-42.67 142.67,-48 137.33,-48 137.33,-48 126.67,-48 126.67,-48 121.33,-48 116,-42.67 116,-37.33 116,-37.33 116,-26.67 116,-26.67 116,-21.33 121.33,-16 126.67,-16"/>
<text text-anchor="start" x="128.25" y="-26.2" font-family="Helvetica,sans-Serif" font-size="14.00">4</text>
<path fill="none" stroke="black" d="M126.67,-16C126.67,-16 137.33,-16 137.33,-16 142.67,-16 148,-21.33 148,-26.67 148,-26.67 148,-37.33 148,-37.33 148,-42.67 142.67,-48 137.33,-48 137.33,-48 126.67,-48 126.67,-48 121.33,-48 116,-42.67 116,-37.33 116,-37.33 116,-26.67 116,-26.67 116,-21.33 121.33,-16 126.67,-16"/>
</a>
</g>
</g>
<!-- i64&#45;11743562013128004906 -->
<g id="node19" class="node">
<title>i64&#45;11743562013128004906</title>
<g id="a_node19"><a xlink:title="i64&#45;11743562013128004906: i64&#45;11743562013128004906">
<path fill="white" stroke="none" d="M558.67,-95C558.67,-95 569.33,-95 569.33,-95 574.67,-95 580,-100.33 580,-105.67 580,-105.67 580,-116.33 580,-116.33 580,-121.67 574.67,-127 569.33,-127 569.33,-127 558.67,-127 558.67,-127 553.33,-127 548,-121.67 548,-116.33 548,-116.33 548,-105.67 548,-105.67 548,-100.33 553.33,-95 558.67,-95"/>
<text text-anchor="start" x="560.25" y="-105.2" font-family="Helvetica,sans-Serif" font-size="14.00">2</text>
<path fill="none" stroke="black" d="M558.67,-95C558.67,-95 569.33,-95 569.33,-95 574.67,-95 580,-100.33 580,-105.67 580,-105.67 580,-116.33 580,-116.33 580,-121.67 574.67,-127 569.33,-127 569.33,-127 558.67,-127 558.67,-127 553.33,-127 548,-121.67 548,-116.33 548,-116.33 548,-105.67 548,-105.67 548,-100.33 553.33,-95 558.67,-95"/>
</a>
</g>
</g>
<!-- i64&#45;16783941965674463102 -->
<g id="node20" class="node">
<title>i64&#45;16783941965674463102</title>
<g id="a_node20"><a xlink:title="i64&#45;16783941965674463102: i64&#45;16783941965674463102">
<path fill="white" stroke="none" d="M338.67,-95C338.67,-95 349.33,-95 349.33,-95 354.67,-95 360,-100.33 360,-105.67 360,-105.67 360,-116.33 360,-116.33 360,-121.67 354.67,-127 349.33,-127 349.33,-127 338.67,-127 338.67,-127 333.33,-127 328,-121.67 328,-116.33 328,-116.33 328,-105.67 328,-105.67 328,-100.33 333.33,-95 338.67,-95"/>
<text text-anchor="start" x="340.25" y="-105.2" font-family="Helvetica,sans-Serif" font-size="14.00">6</text>
<path fill="none" stroke="black" d="M338.67,-95C338.67,-95 349.33,-95 349.33,-95 354.67,-95 360,-100.33 360,-105.67 360,-105.67 360,-116.33 360,-116.33 360,-121.67 354.67,-127 349.33,-127 349.33,-127 338.67,-127 338.67,-127 333.33,-127 328,-121.67 328,-116.33 328,-116.33 328,-105.67 328,-105.67 328,-100.33 333.33,-95 338.67,-95"/>
</a>
</g>
</g>
<!-- Slist&#45;7586556743040283621 -->
<g id="node21" class="node">
<title>Slist&#45;7586556743040283621</title>
<g id="a_node21"><a xlink:title="6: Slist&#45;7586556743040283621">
<path fill="white" stroke="none" d="M933.92,-727C933.92,-727 948.08,-727 948.08,-727 953.42,-727 958.75,-732.33 958.75,-737.67 958.75,-737.67 958.75,-748.33 958.75,-748.33 958.75,-753.67 953.42,-759 948.08,-759 948.08,-759 933.92,-759 933.92,-759 928.58,-759 923.25,-753.67 923.25,-748.33 923.25,-748.33 923.25,-737.67 923.25,-737.67 923.25,-732.33 928.58,-727 933.92,-727"/>
<text text-anchor="start" x="928.25" y="-737.2" font-family="Helvetica,sans-Serif" font-size="14.00">Slist</text>
<path fill="none" stroke="black" d="M933.92,-727C933.92,-727 948.08,-727 948.08,-727 953.42,-727 958.75,-732.33 958.75,-737.67 958.75,-737.67 958.75,-748.33 958.75,-748.33 958.75,-753.67 953.42,-759 948.08,-759 948.08,-759 933.92,-759 933.92,-759 928.58,-759 923.25,-753.67 923.25,-748.33 923.25,-748.33 923.25,-737.67 923.25,-737.67 923.25,-732.33 928.58,-727 933.92,-727"/>
</a>
</g>
</g>
<!-- i64&#45;10912160959110460649 -->
<g id="node22" class="node">
<title>i64&#45;10912160959110460649</title>
<g id="a_node22"><a xlink:title="i64&#45;10912160959110460649: i64&#45;10912160959110460649">
<path fill="white" stroke="none" d="M806.67,-95C806.67,-95 817.33,-95 817.33,-95 822.67,-95 828,-100.33 828,-105.67 828,-105.67 828,-116.33 828,-116.33 828,-121.67 822.67,-127 817.33,-127 817.33,-127 806.67,-127 806.67,-127 801.33,-127 796,-121.67 796,-116.33 796,-116.33 796,-105.67 796,-105.67 796,-100.33 801.33,-95 806.67,-95"/>
<text text-anchor="start" x="808.25" y="-105.2" font-family="Helvetica,sans-Serif" font-size="14.00">5</text>
<path fill="none" stroke="black" d="M806.67,-95C806.67,-95 817.33,-95 817.33,-95 822.67,-95 828,-100.33 828,-105.67 828,-105.67 828,-116.33 828,-116.33 828,-121.67 822.67,-127 817.33,-127 817.33,-127 806.67,-127 806.67,-127 801.33,-127 796,-121.67 796,-116.33 796,-116.33 796,-105.67 796,-105.67 796,-100.33 801.33,-95 806.67,-95"/>
</a>
</g>
</g>
<!-- i64&#45;17615343019692007359 -->
<g id="node23" class="node">
<title>i64&#45;17615343019692007359</title>
<g id="a_node23"><a xlink:title="i64&#45;17615343019692007359: i64&#45;17615343019692007359">
<path fill="white" stroke="none" d="M250.67,-95C250.67,-95 261.33,-95 261.33,-95 266.67,-95 272,-100.33 272,-105.67 272,-105.67 272,-116.33 272,-116.33 272,-121.67 266.67,-127 261.33,-127 261.33,-127 250.67,-127 250.67,-127 245.33,-127 240,-121.67 240,-116.33 240,-116.33 240,-105.67 240,-105.67 240,-100.33 245.33,-95 250.67,-95"/>
<text text-anchor="start" x="252.25" y="-105.2" font-family="Helvetica,sans-Serif" font-size="14.00">3</text>
<path fill="none" stroke="black" d="M250.67,-95C250.67,-95 261.33,-95 261.33,-95 266.67,-95 272,-100.33 272,-105.67 272,-105.67 272,-116.33 272,-116.33 272,-121.67 266.67,-127 261.33,-127 261.33,-127 250.67,-127 250.67,-127 245.33,-127 240,-121.67 240,-116.33 240,-116.33 240,-105.67 240,-105.67 240,-100.33 245.33,-95 250.67,-95"/>
</a>
</g>
</g>
<!-- i64&#45;5871781006564002453 -->
<g id="node24" class="node">
<title>i64&#45;5871781006564002453</title>
<g id="a_node24"><a xlink:title="i64&#45;5871781006564002453: i64&#45;5871781006564002453">
<path fill="white" stroke="none" d="M1066.67,-95C1066.67,-95 1077.33,-95 1077.33,-95 1082.67,-95 1088,-100.33 1088,-105.67 1088,-105.67 1088,-116.33 1088,-116.33 1088,-121.67 1082.67,-127 1077.33,-127 1077.33,-127 1066.67,-127 1066.67,-127 1061.33,-127 1056,-121.67 1056,-116.33 1056,-116.33 1056,-105.67 1056,-105.67 1056,-100.33 1061.33,-95 1066.67,-95"/>
<text text-anchor="start" x="1068.25" y="-105.2" font-family="Helvetica,sans-Serif" font-size="14.00">1</text>
<path fill="none" stroke="black" d="M1066.67,-95C1066.67,-95 1077.33,-95 1077.33,-95 1082.67,-95 1088,-100.33 1088,-105.67 1088,-105.67 1088,-116.33 1088,-116.33 1088,-121.67 1082.67,-127 1077.33,-127 1077.33,-127 1066.67,-127 1066.67,-127 1061.33,-127 1056,-121.67 1056,-116.33 1056,-116.33 1056,-105.67 1056,-105.67 1056,-100.33 1061.33,-95 1066.67,-95"/>
</a>
</g>
</g>
<!-- edge&#45;9572042964624420268 -->
<g id="node25" class="node">
<title>edge&#45;9572042964624420268</title>
<g id="a_node25"><a xlink:title="edge&#45;9572042964624420268&#45;value: edge&#45;9572042964624420268">
<path fill="white" stroke="none" d="M563.67,-253C563.67,-253 582.33,-253 582.33,-253 587.67,-253 593,-258.33 593,-263.67 593,-263.67 593,-274.33 593,-274.33 593,-279.67 587.67,-285 582.33,-285 582.33,-285 563.67,-285 563.67,-285 558.33,-285 553,-279.67 553,-274.33 553,-274.33 553,-263.67 553,-263.67 553,-258.33 558.33,-253 563.67,-253"/>
<text text-anchor="start" x="558" y="-263.2" font-family="Helvetica,sans-Serif" font-size="14.00">edge</text>
<path fill="none" stroke="black" d="M563.67,-253C563.67,-253 582.33,-253 582.33,-253 587.67,-253 593,-258.33 593,-263.67 593,-263.67 593,-274.33 593,-274.33 593,-279.67 587.67,-285 582.33,-285 582.33,-285 563.67,-285 563.67,-285 558.33,-285 553,-279.67 553,-274.33 553,-274.33 553,-263.67 553,-263.67 553,-258.33 558.33,-253 563.67,-253"/>
</a>
</g>
</g>
<!-- edge&#45;9572042964624420268&#45;value -->
<g id="node26" class="node">
<title>edge&#45;9572042964624420268&#45;value</title>
<g id="a_node26"><a xlink:title="edge&#45;9572042964624420268&#45;value: edge&#45;9572042964624420268&#45;value">
<path fill="white" stroke="none" d="M625.67,-253C625.67,-253 636.33,-253 636.33,-253 641.67,-253 647,-258.33 647,-263.67 647,-263.67 647,-274.33 647,-274.33 647,-279.67 641.67,-285 636.33,-285 636.33,-285 625.67,-285 625.67,-285 620.33,-285 615,-279.67 615,-274.33 615,-274.33 615,-263.67 615,-263.67 615,-258.33 620.33,-253 625.67,-253"/>
<text text-anchor="start" x="626.5" y="-263.2" font-family="Helvetica,sans-Serif" font-size="14.00">()</text>
<path fill="none" stroke="black" d="M625.67,-253C625.67,-253 636.33,-253 636.33,-253 641.67,-253 647,-258.33 647,-263.67 647,-263.67 647,-274.33 647,-274.33 647,-279.67 641.67,-285 636.33,-285 636.33,-285 625.67,-285 625.67,-285 620.33,-285 615,-279.67 615,-274.33 615,-274.33 615,-263.67 615,-263.67 615,-258.33 620.33,-253 625.67,-253"/>
</a>
</g>
</g>
<!-- edge&#45;8740641910606876011 -->
<g id="node27" class="node">
<title>edge&#45;8740641910606876011</title>
<g id="a_node27"><a xlink:title="edge&#45;8740641910606876011&#45;value: edge&#45;8740641910606876011">
<path fill="white" stroke="none" d="M687.67,-253C687.67,-253 706.33,-253 706.33,-253 711.67,-253 717,-258.33 717,-263.67 717,-263.67 717,-274.33 717,-274.33 717,-279.67 711.67,-285 706.33,-285 706.33,-285 687.67,-285 687.67,-285 682.33,-285 677,-279.67 677,-274.33 677,-274.33 677,-263.67 677,-263.67 677,-258.33 682.33,-253 687.67,-253"/>
<text text-anchor="start" x="682" y="-263.2" font-family="Helvetica,sans-Serif" font-size="14.00">edge</text>
<path fill="none" stroke="black" d="M687.67,-253C687.67,-253 706.33,-253 706.33,-253 711.67,-253 717,-258.33 717,-263.67 717,-263.67 717,-274.33 717,-274.33 717,-279.67 711.67,-285 706.33,-285 706.33,-285 687.67,-285 687.67,-285 682.33,-285 677,-279.67 677,-274.33 677,-274.33 677,-263.67 677,-263.67 677,-258.33 682.33,-253 687.67,-253"/>
</a>
</g>
</g>
<!-- edge&#45;8740641910606876011&#45;value -->
<g id="node28" class="node">
<title>edge&#45;8740641910606876011&#45;value</title>
<g id="a_node28"><a xlink:title="edge&#45;8740641910606876011&#45;value: edge&#45;8740641910606876011&#45;value">
<path fill="white" stroke="none" d="M749.67,-253C749.67,-253 760.33,-253 760.33,-253 765.67,-253 771,-258.33 771,-263.67 771,-263.67 771,-274.33 771,-274.33 771,-279.67 765.67,-285 760.33,-285 760.33,-285 749.67,-285 749.67,-285 744.33,-285 739,-279.67 739,-274.33 739,-274.33 739,-263.67 739,-263.67 739,-258.33 744.33,-253 749.67,-253"/>
<text text-anchor="start" x="750.5" y="-263.2" font-family="Helvetica,sans-Serif" font-size="14.00">()</text>
<path fill="none" stroke="black" d="M749.67,-253C749.67,-253 760.33,-253 760.33,-253 765.67,-253 771,-258.33 771,-263.67 771,-263.67 771,-274.33 771,-274.33 771,-279.67 765.67,-285 760.33,-285 760.33,-285 749.67,-285 749.67,-285 744.33,-285 739,-279.67 739,-274.33 739,-274.33 739,-263.67 739,-263.67 739,-258.33 744.33,-253 749.67,-253"/>
</a>
</g>
</g>
<!-- edge&#45;11868447927124751835 -->
<g id="node29" class="node">
<title>edge&#45;11868447927124751835</title>
<g id="a_node29"><a xlink:title="edge&#45;11868447927124751835&#45;value: edge&#45;11868447927124751835">
<path fill="white" stroke="none" d="M439.67,-253C439.67,-253 458.33,-253 458.33,-253 463.67,-253 469,-258.33 469,-263.67 469,-263.67 469,-274.33 469,-274.33 469,-279.67 463.67,-285 458.33,-285 458.33,-285 439.67,-285 439.67,-285 434.33,-285 429,-279.67 429,-274.33 429,-274.33 429,-263.67 429,-263.67 429,-258.33 434.33,-253 439.67,-253"/>
<text text-anchor="start" x="434" y="-263.2" font-family="Helvetica,sans-Serif" font-size="14.00">edge</text>
<path fill="none" stroke="black" d="M439.67,-253C439.67,-253 458.33,-253 458.33,-253 463.67,-253 469,-258.33 469,-263.67 469,-263.67 469,-274.33 469,-274.33 469,-279.67 463.67,-285 458.33,-285 458.33,-285 439.67,-285 439.67,-285 434.33,-285 429,-279.67 429,-274.33 429,-274.33 429,-263.67 429,-263.67 429,-258.33 434.33,-253 439.67,-253"/>
</a>
</g>
</g>
<!-- edge&#45;11868447927124751835&#45;value -->
<g id="node30" class="node">
<title>edge&#45;11868447927124751835&#45;value</title>
<g id="a_node30"><a xlink:title="edge&#45;11868447927124751835&#45;value: edge&#45;11868447927124751835&#45;value">
<path fill="white" stroke="none" d="M501.67,-253C501.67,-253 512.33,-253 512.33,-253 517.67,-253 523,-258.33 523,-263.67 523,-263.67 523,-274.33 523,-274.33 523,-279.67 517.67,-285 512.33,-285 512.33,-285 501.67,-285 501.67,-285 496.33,-285 491,-279.67 491,-274.33 491,-274.33 491,-263.67 491,-263.67 491,-258.33 496.33,-253 501.67,-253"/>
<text text-anchor="start" x="502.5" y="-263.2" font-family="Helvetica,sans-Serif" font-size="14.00">()</text>
<path fill="none" stroke="black" d="M501.67,-253C501.67,-253 512.33,-253 512.33,-253 517.67,-253 523,-258.33 523,-263.67 523,-263.67 523,-274.33 523,-274.33 523,-279.67 517.67,-285 512.33,-285 512.33,-285 501.67,-285 501.67,-285 496.33,-285 491,-279.67 491,-274.33 491,-274.33 491,-263.67 491,-263.67 491,-258.33 496.33,-253 501.67,-253"/>
</a>
</g>
</g>
<!-- edge&#45;15318938057191675792 -->
<g id="node31" class="node">
<title>edge&#45;15318938057191675792</title>
<g id="a_node31"><a xlink:title="edge&#45;15318938057191675792&#45;value: edge&#45;15318938057191675792">
<path fill="white" stroke="none" d="M113.67,-253C113.67,-253 132.33,-253 132.33,-253 137.67,-253 143,-258.33 143,-263.67 143,-263.67 143,-274.33 143,-274.33 143,-279.67 137.67,-285 132.33,-285 132.33,-285 113.67,-285 113.67,-285 108.33,-285 103,-279.67 103,-274.33 103,-274.33 103,-263.67 103,-263.67 103,-258.33 108.33,-253 113.67,-253"/>
<text text-anchor="start" x="108" y="-263.2" font-family="Helvetica,sans-Serif" font-size="14.00">edge</text>
<path fill="none" stroke="black" d="M113.67,-253C113.67,-253 132.33,-253 132.33,-253 137.67,-253 143,-258.33 143,-263.67 143,-263.67 143,-274.33 143,-274.33 143,-279.67 137.67,-285 132.33,-285 132.33,-285 113.67,-285 113.67,-285 108.33,-285 103,-279.67 103,-274.33 103,-274.33 103,-263.67 103,-263.67 103,-258.33 108.33,-253 113.67,-253"/>
</a>
</g>
</g>
<!-- edge&#45;15318938057191675792&#45;value -->
<g id="node32" class="node">
<title>edge&#45;15318938057191675792&#45;value</title>
<g id="a_node32"><a xlink:title="edge&#45;15318938057191675792&#45;value: edge&#45;15318938057191675792&#45;value">
<path fill="white" stroke="none" d="M175.67,-253C175.67,-253 186.33,-253 186.33,-253 191.67,-253 197,-258.33 197,-263.67 197,-263.67 197,-274.33 197,-274.33 197,-279.67 191.67,-285 186.33,-285 186.33,-285 175.67,-285 175.67,-285 170.33,-285 165,-279.67 165,-274.33 165,-274.33 165,-263.67 165,-263.67 165,-258.33 170.33,-253 175.67,-253"/>
<text text-anchor="start" x="176.5" y="-263.2" font-family="Helvetica,sans-Serif" font-size="14.00">()</text>
<path fill="none" stroke="black" d="M175.67,-253C175.67,-253 186.33,-253 186.33,-253 191.67,-253 197,-258.33 197,-263.67 197,-263.67 197,-274.33 197,-274.33 197,-279.67 191.67,-285 186.33,-285 186.33,-285 175.67,-285 175.67,-285 170.33,-285 165,-279.67 165,-274.33 165,-274.33 165,-263.67 165,-263.67 165,-258.33 170.33,-253 175.67,-253"/>
</a>
</g>
</g>
<!-- edge&#45;2743974990046126629 -->
<g id="node33" class="node">
<title>edge&#45;2743974990046126629</title>
<g id="a_node33"><a xlink:title="edge&#45;2743974990046126629&#45;value: edge&#45;2743974990046126629">
<path fill="white" stroke="none" d="M237.67,-253C237.67,-253 256.33,-253 256.33,-253 261.67,-253 267,-258.33 267,-263.67 267,-263.67 267,-274.33 267,-274.33 267,-279.67 261.67,-285 256.33,-285 256.33,-285 237.67,-285 237.67,-285 232.33,-285 227,-279.67 227,-274.33 227,-274.33 227,-263.67 227,-263.67 227,-258.33 232.33,-253 237.67,-253"/>
<text text-anchor="start" x="232" y="-263.2" font-family="Helvetica,sans-Serif" font-size="14.00">edge</text>
<path fill="none" stroke="black" d="M237.67,-253C237.67,-253 256.33,-253 256.33,-253 261.67,-253 267,-258.33 267,-263.67 267,-263.67 267,-274.33 267,-274.33 267,-279.67 261.67,-285 256.33,-285 256.33,-285 237.67,-285 237.67,-285 232.33,-285 227,-279.67 227,-274.33 227,-274.33 227,-263.67 227,-263.67 227,-258.33 232.33,-253 237.67,-253"/>
</a>
</g>
</g>
<!-- edge&#45;2743974990046126629&#45;value -->
<g id="node34" class="node">
<title>edge&#45;2743974990046126629&#45;value</title>
<g id="a_node34"><a xlink:title="edge&#45;2743974990046126629&#45;value: edge&#45;2743974990046126629&#45;value">
<path fill="white" stroke="none" d="M299.67,-253C299.67,-253 310.33,-253 310.33,-253 315.67,-253 321,-258.33 321,-263.67 321,-263.67 321,-274.33 321,-274.33 321,-279.67 315.67,-285 310.33,-285 310.33,-285 299.67,-285 299.67,-285 294.33,-285 289,-279.67 289,-274.33 289,-274.33 289,-263.67 289,-263.67 289,-258.33 294.33,-253 299.67,-253"/>
<text text-anchor="start" x="300.5" y="-263.2" font-family="Helvetica,sans-Serif" font-size="14.00">()</text>
<path fill="none" stroke="black" d="M299.67,-253C299.67,-253 310.33,-253 310.33,-253 315.67,-253 321,-258.33 321,-263.67 321,-263.67 321,-274.33 321,-274.33 321,-279.67 315.67,-285 310.33,-285 310.33,-285 299.67,-285 299.67,-285 294.33,-285 289,-279.67 289,-274.33 289,-274.33 289,-263.67 289,-263.67 289,-258.33 294.33,-253 299.67,-253"/>
</a>
</g>
</g>
<!-- edge&#45;5996666920560749382 -->
<g id="node35" class="node">
<title>edge&#45;5996666920560749382</title>
<g id="a_node35"><a xlink:title="edge&#45;5996666920560749382&#45;value: edge&#45;5996666920560749382">
<path fill="white" stroke="none" d="M811.67,-253C811.67,-253 830.33,-253 830.33,-253 835.67,-253 841,-258.33 841,-263.67 841,-263.67 841,-274.33 841,-274.33 841,-279.67 835.67,-285 830.33,-285 830.33,-285 811.67,-285 811.67,-285 806.33,-285 801,-279.67 801,-274.33 801,-274.33 801,-263.67 801,-263.67 801,-258.33 806.33,-253 811.67,-253"/>
<text text-anchor="start" x="806" y="-263.2" font-family="Helvetica,sans-Serif" font-size="14.00">edge</text>
<path fill="none" stroke="black" d="M811.67,-253C811.67,-253 830.33,-253 830.33,-253 835.67,-253 841,-258.33 841,-263.67 841,-263.67 841,-274.33 841,-274.33 841,-279.67 835.67,-285 830.33,-285 830.33,-285 811.67,-285 811.67,-285 806.33,-285 801,-279.67 801,-274.33 801,-274.33 801,-263.67 801,-263.67 801,-258.33 806.33,-253 811.67,-253"/>
</a>
</g>
</g>
<!-- edge&#45;5996666920560749382&#45;value -->
<g id="node36" class="node">
<title>edge&#45;5996666920560749382&#45;value</title>
<g id="a_node36"><a xlink:title="edge&#45;5996666920560749382&#45;value: edge&#45;5996666920560749382&#45;value">
<path fill="white" stroke="none" d="M873.67,-253C873.67,-253 884.33,-253 884.33,-253 889.67,-253 895,-258.33 895,-263.67 895,-263.67 895,-274.33 895,-274.33 895,-279.67 889.67,-285 884.33,-285 884.33,-285 873.67,-285 873.67,-285 868.33,-285 863,-279.67 863,-274.33 863,-274.33 863,-263.67 863,-263.67 863,-258.33 868.33,-253 873.67,-253"/>
<text text-anchor="start" x="874.5" y="-263.2" font-family="Helvetica,sans-Serif" font-size="14.00">()</text>
<path fill="none" stroke="black" d="M873.67,-253C873.67,-253 884.33,-253 884.33,-253 889.67,-253 895,-258.33 895,-263.67 895,-263.67 895,-274.33 895,-274.33 895,-279.67 889.67,-285 884.33,-285 884.33,-285 873.67,-285 873.67,-285 868.33,-285 863,-279.67 863,-274.33 863,-274.33 863,-263.67 863,-263.67 863,-258.33 868.33,-253 873.67,-253"/>
</a>
</g>
</g>
<!-- edge&#45;5871781006564002453 -->
<g id="node37" class="node">
<title>edge&#45;5871781006564002453</title>
<g id="a_node37"><a xlink:title="edge&#45;5871781006564002453&#45;value: edge&#45;5871781006564002453">
<path fill="white" stroke="none" d="M1071.67,-253C1071.67,-253 1090.33,-253 1090.33,-253 1095.67,-253 1101,-258.33 1101,-263.67 1101,-263.67 1101,-274.33 1101,-274.33 1101,-279.67 1095.67,-285 1090.33,-285 1090.33,-285 1071.67,-285 1071.67,-285 1066.33,-285 1061,-279.67 1061,-274.33 1061,-274.33 1061,-263.67 1061,-263.67 1061,-258.33 1066.33,-253 1071.67,-253"/>
<text text-anchor="start" x="1066" y="-263.2" font-family="Helvetica,sans-Serif" font-size="14.00">edge</text>
<path fill="none" stroke="black" d="M1071.67,-253C1071.67,-253 1090.33,-253 1090.33,-253 1095.67,-253 1101,-258.33 1101,-263.67 1101,-263.67 1101,-274.33 1101,-274.33 1101,-279.67 1095.67,-285 1090.33,-285 1090.33,-285 1071.67,-285 1071.67,-285 1066.33,-285 1061,-279.67 1061,-274.33 1061,-274.33 1061,-263.67 1061,-263.67 1061,-258.33 1066.33,-253 1071.67,-253"/>
</a>
</g>
</g>
<!-- edge&#45;5871781006564002453&#45;value -->
<g id="node38" class="node">
<title>edge&#45;5871781006564002453&#45;value</title>
<g id="a_node38"><a xlink:title="edge&#45;5871781006564002453&#45;value: edge&#45;5871781006564002453&#45;value">
<path fill="white" stroke="none" d="M1133.67,-253C1133.67,-253 1144.33,-253 1144.33,-253 1149.67,-253 1155,-258.33 1155,-263.67 1155,-263.67 1155,-274.33 1155,-274.33 1155,-279.67 1149.67,-285 1144.33,-285 1144.33,-285 1133.67,-285 1133.67,-285 1128.33,-285 1123,-279.67 1123,-274.33 1123,-274.33 1123,-263.67 1123,-263.67 1123,-258.33 1128.33,-253 1133.67,-253"/>
<text text-anchor="start" x="1134.5" y="-263.2" font-family="Helvetica,sans-Serif" font-size="14.00">()</text>
<path fill="none" stroke="black" d="M1133.67,-253C1133.67,-253 1144.33,-253 1144.33,-253 1149.67,-253 1155,-258.33 1155,-263.67 1155,-263.67 1155,-274.33 1155,-274.33 1155,-279.67 1149.67,-285 1144.33,-285 1144.33,-285 1133.67,-285 1133.67,-285 1128.33,-285 1123,-279.67 1123,-274.33 1123,-274.33 1123,-263.67 1123,-263.67 1123,-258.33 1128.33,-253 1133.67,-253"/>
</a>
</g>
</g>
<!-- edge&#45;11743562013128004906 -->
<g id="node39" class="node">
<title>edge&#45;11743562013128004906</title>
<g id="a_node39"><a xlink:title="edge&#45;11743562013128004906&#45;value: edge&#45;11743562013128004906">
<path fill="white" stroke="none" d="M947.67,-253C947.67,-253 966.33,-253 966.33,-253 971.67,-253 977,-258.33 977,-263.67 977,-263.67 977,-274.33 977,-274.33 977,-279.67 971.67,-285 966.33,-285 966.33,-285 947.67,-285 947.67,-285 942.33,-285 937,-279.67 937,-274.33 937,-274.33 937,-263.67 937,-263.67 937,-258.33 942.33,-253 947.67,-253"/>
<text text-anchor="start" x="942" y="-263.2" font-family="Helvetica,sans-Serif" font-size="14.00">edge</text>
<path fill="none" stroke="black" d="M947.67,-253C947.67,-253 966.33,-253 966.33,-253 971.67,-253 977,-258.33 977,-263.67 977,-263.67 977,-274.33 977,-274.33 977,-279.67 971.67,-285 966.33,-285 966.33,-285 947.67,-285 947.67,-285 942.33,-285 937,-279.67 937,-274.33 937,-274.33 937,-263.67 937,-263.67 937,-258.33 942.33,-253 947.67,-253"/>
</a>
</g>
</g>
<!-- edge&#45;11743562013128004906&#45;value -->
<g id="node40" class="node">
<title>edge&#45;11743562013128004906&#45;value</title>
<g id="a_node40"><a xlink:title="edge&#45;11743562013128004906&#45;value: edge&#45;11743562013128004906&#45;value">
<path fill="white" stroke="none" d="M1009.67,-253C1009.67,-253 1020.33,-253 1020.33,-253 1025.67,-253 1031,-258.33 1031,-263.67 1031,-263.67 1031,-274.33 1031,-274.33 1031,-279.67 1025.67,-285 1020.33,-285 1020.33,-285 1009.67,-285 1009.67,-285 1004.33,-285 999,-279.67 999,-274.33 999,-274.33 999,-263.67 999,-263.67 999,-258.33 1004.33,-253 1009.67,-253"/>
<text text-anchor="start" x="1010.5" y="-263.2" font-family="Helvetica,sans-Serif" font-size="14.00">()</text>
<path fill="none" stroke="black" d="M1009.67,-253C1009.67,-253 1020.33,-253 1020.33,-253 1025.67,-253 1031,-258.33 1031,-263.67 1031,-263.67 1031,-274.33 1031,-274.33 1031,-279.67 1025.67,-285 1020.33,-285 1020.33,-285 1009.67,-285 1009.67,-285 1004.33,-285 999,-279.67 999,-274.33 999,-274.33 999,-263.67 999,-263.67 999,-258.33 1004.33,-253 1009.67,-253"/>
</a>
</g>
</g>
</g>
</svg>
